<svg width="32" height="32" viewBox="0 0 32 32" fill="none" xmlns="http://www.w3.org/2000/svg">
  <!-- Background circle with gradient -->
  <circle cx="16" cy="16" r="16" fill="url(#gradient)"/>
  
  <!-- Musical note symbol -->
  <path d="M8 20C8 18.9 8.9 18 10 18C11.1 18 12 18.9 12 20C12 21.1 11.1 22 10 22C8.9 22 8 21.1 8 20Z" fill="white"/>
  <path d="M12 20V8L20 6V18C20 19.1 20.9 20 22 20C23.1 20 24 19.1 24 18C24 16.9 23.1 16 22 16C20.9 16 20 16.9 20 18V8L12 10V20Z" fill="white"/>
  
  <!-- Collaboration dots (representing community/collaboration) -->
  <circle cx="6" cy="6" r="1.5" fill="white" opacity="0.8"/>
  <circle cx="26" cy="6" r="1.5" fill="white" opacity="0.8"/>
  <circle cx="6" cy="26" r="1.5" fill="white" opacity="0.8"/>
  <circle cx="26" cy="26" r="1.5" fill="white" opacity="0.8"/>
  
  <!-- Center collaboration symbol (simplified) -->
  <path d="M16 8L18 10L16 12L14 10L16 8Z" fill="white" opacity="0.6"/>
  <path d="M16 20L18 22L16 24L14 22L16 20Z" fill="white" opacity="0.6"/>
  
  <defs>
    <linearGradient id="gradient" x1="0%" y1="0%" x2="100%" y2="100%">
      <stop offset="0%" style="stop-color:#6366f1;stop-opacity:1" />
      <stop offset="50%" style="stop-color:#8b5cf6;stop-opacity:1" />
      <stop offset="100%" style="stop-color:#ec4899;stop-opacity:1" />
    </linearGradient>
  </defs>
</svg>
